#N canvas 525 55 1946 1012 12;
#X msg 815 281 devices;
#X obj 759 813 netsend -u -b;
#X msg 945 794 disconnect;
#X msg 887 280 close;
#X text 944 745 ENVOYER LES DONNEES VERS LE LOGICIEL;
#X msg 950 281 close \, baud 115200 \, open 4;
#X msg 947 766 disconnect \, connect 127.0.0.1 8001;
#X obj 809 643 oscparse;
#X obj 848 559 tgl 19 0 empty empty DEBOGAGE 22 11 0 12 #fcfcfc #000000 #000000 0 1;
#X obj 809 616 spigot;
#X obj 807 671 print OSC;
#X obj 839 374 tgl 19 0 empty empty DEBOGAGE 22 11 0 12 #fcfcfc #000000 #000000 0 1;
#X obj 800 416 spigot;
#X obj 800 453 print COM;
#X obj 731 360 bng 19 250 50 0 empty empty empty 0 -10 0 12 #fcfcfc #000000 #000000;
#X text 753 113 RECEVOIR LES DONNEES DU LOGICIEL;
#X text 817 341 ENVOYER ET RECEVOIR LES DONNEES AU MICROCONTRÔLEUR;
#X obj 730 159 bng 19 250 50 0 empty empty empty 0 -10 0 12 #fcfcfc #000000 #000000;
#X obj 759 140 netreceive -u -b 8000;
#X text 724 139 UDP;
#X text 720 244 SLIP;
#X text 719 518 SLIP;
#X text 727 814 UDP;
#X text 722 341 COM;
#X obj 759 244 pdchoco/slip_pack;
#X obj 759 518 pdchoco/slip_parse;
#X msg 133 95 1;
#X msg 294 97 1;
#X obj 133 155 oscformat -f f stop;
#X obj 294 153 oscformat -f f play;
#X obj 139 375 hsl 128 15 0 127 0 0 empty empty empty -2 -8 0 10 #fcfcfc #000000 #000000 0 1;
#X obj 136 500 nbx 5 14 -1e+37 1e+37 0 0 empty empty empty 0 -8 0 10 #fcfcfc #000000 #000000 0 256;
#X msg 1356 284 devices;
#X msg 1428 283 close;
#X obj 1379 374 tgl 19 0 empty empty DEBOGAGE 22 11 0 12 #fcfcfc #000000 #000000 0 1;
#X obj 1340 416 spigot;
#X obj 1340 453 print COM;
#X text 1357 341 ENVOYER ET RECEVOIR LES DONNEES AU MICROCONTRÔLEUR;
#X obj 1299 502 pdchoco/slip_parse;
#X msg 1491 284 close \, baud 115200 \, open 8;
#X obj 1343 633 oscparse;
#X obj 1382 549 tgl 19 0 empty empty DEBOGAGE 22 11 0 12 #fcfcfc #000000 #000000 0 1;
#X obj 1343 606 spigot;
#X obj 1343 663 print OSC;
#X floatatom 135 753 5 0 0 0 - - - 0;
#X obj 135 794 oscformat -f f track 2 pan;
#X floatatom 352 752 5 0 0 0 - - - 0;
#X obj 352 794 oscformat -f f track 3 pan;
#X obj 136 540 oscformat -f f track 1 volume;
#X obj 136 415 / 127;
#X text 38 125 PLAY/PAUSE;
#X text 26 456 VOLUME AMBIANCE;
#X text 30 795 CONTROLE PAN;
#X obj 948 722 loadbang;
#X obj 950 234 loadbang;
#X obj 1491 238 loadbang;
#X obj 759 341 comport;
#X obj 1299 341 comport;
#X connect 0 0 56 0;
#X connect 2 0 1 0;
#X connect 3 0 56 0;
#X connect 5 0 56 0;
#X connect 6 0 1 0;
#X connect 7 0 10 0;
#X connect 8 0 9 1;
#X connect 9 0 7 0;
#X connect 11 0 12 1;
#X connect 12 0 13 0;
#X connect 18 0 17 0;
#X connect 18 0 24 0;
#X connect 24 0 56 0;
#X connect 25 0 9 0;
#X connect 25 0 1 0;
#X connect 26 0 28 0;
#X connect 27 0 29 0;
#X connect 28 0 1 0;
#X connect 29 0 1 0;
#X connect 30 0 49 0;
#X connect 31 0 48 0;
#X connect 32 0 57 0;
#X connect 33 0 57 0;
#X connect 34 0 35 1;
#X connect 35 0 36 0;
#X connect 38 0 1 0;
#X connect 38 0 42 0;
#X connect 39 0 57 0;
#X connect 40 0 43 0;
#X connect 41 0 42 1;
#X connect 42 0 40 0;
#X connect 44 0 45 0;
#X connect 45 0 1 0;
#X connect 46 0 47 0;
#X connect 47 0 1 0;
#X connect 48 0 1 0;
#X connect 49 0 31 0;
#X connect 53 0 6 0;
#X connect 54 0 5 0;
#X connect 55 0 39 0;
#X connect 56 0 12 0;
#X connect 56 0 14 0;
#X connect 56 0 25 0;
#X connect 57 0 35 0;
#X connect 57 0 38 0;
