#N canvas -9 0 1916 2011 12;
#X obj 390 247 comport;
#X msg 447 190 devices;
#X obj 389 863 netsend -u -b;
#X msg 506 826 disconnect;
#X msg 519 189 close;
#X text 505 777 ENVOYER LES DONNEES VERS LE LOGICIEL;
#X msg 582 190 close \, baud 115200 \, open 4;
#X msg 508 798 disconnect \, connect 127.0.0.1 8001;
#X obj 439 522 oscparse;
#X obj 478 438 tgl 19 0 empty empty DEBOGAGE 22 11 0 12 -262144 -1
-1 1 1;
#X obj 439 495 spigot;
#X obj 437 550 print OSC;
#X obj 470 280 tgl 19 0 empty empty DEBOGAGE 22 11 0 12 -262144 -1
-1 1 1;
#X obj 431 322 spigot;
#X obj 431 359 print COM;
#X obj 346 264 bng 19 250 50 0 empty empty empty 0 -10 0 12 -262144
-1 -1;
#X text 385 65 RECEVOIR LES DONNEES DU LOGICIEL;
#X text 448 247 ENVOYER ET RECEVOIR LES DONNEES AU MICROCONTRÔLEUR
;
#X obj 343 110 bng 19 250 50 0 empty empty empty 0 -10 0 12 -262144
-1 -1;
#X obj 391 92 netreceive -u -b 8000;
#X text 337 90 UDP;
#X text 352 153 SLIP;
#X text 349 397 SLIP;
#X text 357 864 UDP;
#X text 337 245 COM;
#X obj 391 153 pdchoco/slip_pack;
#X obj 389 397 pdchoco/slip_parse;
#X msg 63 712 1;
#X msg 224 714 1;
#X obj 63 772 oscformat -f f stop;
#X obj 224 770 oscformat -f f play;
#X obj 510 627 hsl 128 15 0 127 0 0 empty empty empty -2 -8 0 10 -262144
-1 -1 0 1;
#X obj 507 670 nbx 5 14 -1e+037 1e+037 0 0 empty empty empty 0 -8 0
10 -262144 -1 -1 0 256;
#X obj 507 712 oscformat -f f master volume;
#X connect 0 0 13 0;
#X connect 0 0 15 0;
#X connect 0 0 26 0;
#X connect 1 0 0 0;
#X connect 3 0 2 0;
#X connect 4 0 0 0;
#X connect 6 0 0 0;
#X connect 7 0 2 0;
#X connect 8 0 11 0;
#X connect 9 0 10 1;
#X connect 10 0 8 0;
#X connect 12 0 13 1;
#X connect 13 0 14 0;
#X connect 19 0 18 0;
#X connect 19 0 25 0;
#X connect 25 0 0 0;
#X connect 26 0 10 0;
#X connect 26 0 2 0;
#X connect 27 0 29 0;
#X connect 28 0 30 0;
#X connect 29 0 2 0;
#X connect 30 0 2 0;
#X connect 31 0 32 0;
#X connect 32 0 33 0;
#X connect 33 0 2 0;
